<svg id="Group_90748" data-name="Group 90748" xmlns="http://www.w3.org/2000/svg" xmlns:xlink="http://www.w3.org/1999/xlink" width="66.865" height="66.7" viewBox="0 0 66.865 66.7">
  <defs>
    <clipPath id="clip-path">
      <rect id="Rectangle_35586" data-name="Rectangle 35586" width="66.865" height="66.7" fill="#e90000"/>
    </clipPath>
  </defs>
  <g id="Group_93120" data-name="Group 93120" clip-path="url(#clip-path)">
    <path id="Path_26338" data-name="Path 26338" d="M33.455,88.689a41.071,41.071,0,0,1-5.09,0C13.2,87.5.805,74.543.04,59.431c-1.164-23.01,22.5-39.485,43.682-29.943.319.144,2.158,1.011,2.262,1.129a.77.77,0,0,1,.131.648l-.938,6.892-.3.216c-12.706-9.3-31.1-3.443-36.351,11.275-6.781,18.994,11.6,37.37,30.608,30.572C53.879,74.945,59.727,56.625,50.422,43.91l.216-.3,6.9-.937a.773.773,0,0,1,.649.131c.131.116,1.018,2.016,1.168,2.352,8.659,19.36-4.8,42.076-25.9,43.533" transform="translate(0.001 -22.068)" fill="#e90000"/>
    <path id="Path_26339" data-name="Path 26339" d="M298.169,7.963l-8.746,8.666c-2.918.3-5.9.965-8.812,1.238-.2.019-.519.1-.457-.194L281.4,8.616l8.613-8.6c.257-.046.159.041.221.164.847,1.675,1.242,3.831,2.1,5.535l5.837,2.121Z" transform="translate(-231.304 0)" fill="#e90000"/>
    <path id="Path_26340" data-name="Path 26340" d="M95.29,94.255l-4.92,5.064c-.327.085-.994-.522-1.341-.7-14.489-7.537-26.395,11.814-14.42,21.311,10.921,8.661,26-3.594,19.314-16.423-.181-.346-.788-1.013-.7-1.339l5.07-4.914a21.375,21.375,0,0,1,4.141,9.357c3.218,19.926-21.893,31.555-35.064,16.122C54.541,107.705,69.4,85.194,88.373,90.668a22.986,22.986,0,0,1,6.916,3.587" transform="translate(-51.655 -74.167)" fill="#e90000"/>
    <path id="Path_26341" data-name="Path 26341" d="M134.91,152.771a8.5,8.5,0,0,1,5.111,1.464L133.9,160.38a18.327,18.327,0,0,0,2.779,2.775l6.152-6.115a5.853,5.853,0,0,1,1.015,1.981A9.057,9.057,0,0,1,130.325,169.4c-7.414-4.776-4.106-16.366,4.584-16.625" transform="translate(-104.218 -126.133)" fill="#e90000"/>
  </g>
</svg>
