<svg id="Group_93138" data-name="Group 93138" xmlns="http://www.w3.org/2000/svg" xmlns:xlink="http://www.w3.org/1999/xlink" width="80.238" height="60.186" viewBox="0 0 80.238 60.186">
  <defs>
    <clipPath id="clip-path">
      <rect id="Rectangle_35585" data-name="Rectangle 35585" width="80.238" height="60.186" fill="#e90000"/>
    </clipPath>
  </defs>
  <g id="Group_93118" data-name="Group 93118" clip-path="url(#clip-path)">
    <path id="Path_26333" data-name="Path 26333" d="M59.935,38.541a8.069,8.069,0,0,0,1.9-.019c.316-.083.83-.585,1.275-.775a8.112,8.112,0,0,1,6.064.007c.431.188.847.677,1.277.773a8.415,8.415,0,0,0,1.9.013c.388-.245.5-5.339,1.47-6.472,3.98-4.668,14.845-4.174,19.139,0,1.428,3.387,4.241,7.259,5.411,10.642a1.585,1.585,0,0,1,.131.806,22.728,22.728,0,0,0-21.24-.833,15,15,0,0,0-4.8,3.734c-2.184,2.346-4.184,5.089-6.217,7.578-.339.419-.362-.143-.521-.314-3.132-3.367-6.466-8.806-10.529-10.828a22.925,22.925,0,0,0-16.42-1.432,42.387,42.387,0,0,0-5.163,2.094c1.693-3.841,3.564-7.612,5.461-11.359,4.907-4.317,13.275-4.6,18.5-.734.41.3.96.6,1.155,1.065.349.822.935,5.881,1.2,6.055" transform="translate(-25.944 -22.158)" fill="#e90000"/>
    <path id="Path_26334" data-name="Path 26334" d="M17.88,95.923c16.582-1.1,26.574,18.031,16.254,31.112C25.462,138.027,7.965,135.992,1.91,123.4A19.215,19.215,0,0,1,17.88,95.923m-.342,6.318a12.733,12.733,0,1,0,8.8,23.144c10.854-7.376,4.8-24.534-8.8-23.144" transform="translate(0 -74.003)" fill="#e90000"/>
    <path id="Path_26335" data-name="Path 26335" d="M201.471,95.9c15.406-1.1,25.719,15.737,17.763,29.034A19.173,19.173,0,1,1,201.471,95.9m-.345,6.316a12.943,12.943,0,0,0-10.872,10.476c-1.851,11.352,11.07,19.261,20.288,12.261,10.243-7.777,3.74-24.207-9.416-22.737" transform="translate(-141.75 -73.982)" fill="#e90000"/>
    <path id="Path_26336" data-name="Path 26336" d="M228.419,3.6a20.2,20.2,0,0,0-10.795.05c-.98.281-1.867.778-2.866.975a5.8,5.8,0,0,1,2.507-3.212,8.01,8.01,0,0,1,9.79.564c.2.169,1.548,1.439,1.363,1.624" transform="translate(-165.761 -0.006)" fill="#e90000"/>
    <path id="Path_26337" data-name="Path 26337" d="M90.688,4.62c-1-.2-1.886-.694-2.866-.975a21.822,21.822,0,0,0-7.634-.729c-1.051.084-2.116.58-3.162.425A7.912,7.912,0,0,1,90.688,4.62" transform="translate(-59.453 0)" fill="#e90000"/>
  </g>
</svg>
