<svg xmlns="http://www.w3.org/2000/svg" width="14.94" height="14.939" viewBox="0 0 14.94 14.939">
  <path id="Icon_ion-ios-call" data-name="Icon ion-ios-call" d="M19,16.2a12.549,12.549,0,0,0-2.621-1.754c-.786-.377-1.073-.369-1.63.031-.463.334-.762.646-1.3.529a7.726,7.726,0,0,1-2.6-1.925,7.67,7.67,0,0,1-1.925-2.6c-.113-.537.2-.832.529-1.3.4-.556.412-.844.031-1.63A12.3,12.3,0,0,0,7.731,4.933c-.572-.572-.7-.447-1.015-.334a5.776,5.776,0,0,0-.93.494A2.8,2.8,0,0,0,4.671,6.271c-.222.478-.478,1.369.828,3.695A20.617,20.617,0,0,0,9.124,14.8l0,0,0,0a20.7,20.7,0,0,0,4.834,3.625c2.326,1.307,3.216,1.05,3.695.828a2.756,2.756,0,0,0,1.178-1.116,5.776,5.776,0,0,0,.494-.93c.113-.315.241-.443-.334-1.015Z" transform="translate(-4.49 -4.502)" fill="#e67817"/>
</svg>
