<svg id="Group_90749" data-name="Group 90749" xmlns="http://www.w3.org/2000/svg" xmlns:xlink="http://www.w3.org/1999/xlink" width="69.275" height="69.287" viewBox="0 0 69.275 69.287">
  <defs>
    <clipPath id="clip-path">
      <rect id="Rectangle_35587" data-name="Rectangle 35587" width="69.275" height="69.287" fill="#e90000"/>
    </clipPath>
  </defs>
  <g id="Group_93122" data-name="Group 93122" clip-path="url(#clip-path)">
    <path id="Path_26342" data-name="Path 26342" d="M82.075,173.716a14.14,14.14,0,0,1,5.889,2.335c5.111,3.5,10.045,8.213,14.956,12.024a6.063,6.063,0,0,1-6.975,9.428l-14.086-7.7c-1.711-.818-2.522,1.425-.854,2.151,4.642,2.041,9.39,5.784,14.03,7.613a8.383,8.383,0,0,0,11.511-8.669l14.792-3.748a5.361,5.361,0,0,1,2.943,10.157c-6.886,3.168-13.556,7.657-20.439,10.726a15.557,15.557,0,0,1-12.744.232L71.9,198.6V173.716Z" transform="translate(-58.044 -140.232)" fill="#e90000"/>
    <path id="Path_26343" data-name="Path 26343" d="M.833,155.391c2.446.2,5.757-.416,8.1.063a3.444,3.444,0,0,1,2.554,2.64l.063,26.482a3.466,3.466,0,0,1-2.732,3.039,47.318,47.318,0,0,1-7.73.067,1.105,1.105,0,0,1-1.048-.827L0,156.58a1.128,1.128,0,0,1,.831-1.189" transform="translate(0 -125.339)" fill="#e90000"/>
    <path id="Path_26344" data-name="Path 26344" d="M274.188,113.833,257.81,132.591c-.436.133-.036-.866,0-1.009,1.575-5.83,3.555-11.56,5.109-17.4l.228-.349Z" transform="translate(-207.954 -91.892)" fill="#e90000"/>
    <path id="Path_26345" data-name="Path 26345" d="M170.52,113.833l5.553,18.9-16.591-18.9Z" transform="translate(-128.742 -91.892)" fill="#e90000"/>
    <path id="Path_26346" data-name="Path 26346" d="M238.213,113.833,234.1,128.118l-4.255-14.285Z" transform="translate(-185.542 -91.892)" fill="#e90000"/>
    <path id="Path_26347" data-name="Path 26347" d="M205.051,59.938l-5.124,7.215-5.265-7.215Z" transform="translate(-157.142 -48.385)" fill="#e90000"/>
    <path id="Path_26348" data-name="Path 26348" d="M264.934,59.938l-5.124,7.215-5.265-7.215Z" transform="translate(-205.482 -48.385)" fill="#e90000"/>
    <path id="Path_26349" data-name="Path 26349" d="M168.544,73.486h-9.811l4.85-6.774Z" transform="translate(-128.137 -53.853)" fill="#e90000"/>
    <path id="Path_26350" data-name="Path 26350" d="M303.281,73.486H293.47l4.962-6.774Z" transform="translate(-236.903 -53.853)" fill="#e90000"/>
    <path id="Path_26351" data-name="Path 26351" d="M186.576,12a1.229,1.229,0,0,1,1.271.4,53.685,53.685,0,0,1,3.507,4.716c.613,1.4-.791,2.368-1.859,1.427a57.876,57.876,0,0,1-3.577-4.79c-.306-.7-.176-1.57.659-1.753" transform="translate(-149.959 -9.655)" fill="#e90000"/>
    <path id="Path_26352" data-name="Path 26352" d="M291.783,12.017a1.166,1.166,0,0,1,1.369,1.663c-.13.34-3.3,4.588-3.632,4.88a1.177,1.177,0,0,1-1.913-1.337,56.07,56.07,0,0,1,3.5-4.727,1.394,1.394,0,0,1,.679-.479" transform="translate(-232.082 -9.669)" fill="#e90000"/>
    <path id="Path_26353" data-name="Path 26353" d="M233.587,81.308,236.98,76.4l3.533,4.906Z" transform="translate(-188.563 -61.675)" fill="#e90000"/>
    <path id="Path_26354" data-name="Path 26354" d="M245.924.039a1.14,1.14,0,0,1,1.485,1.05,40.215,40.215,0,0,1-.012,6.054,1.161,1.161,0,0,1-2.3-.133,40.188,40.188,0,0,1,.012-6.054,1.112,1.112,0,0,1,.818-.918" transform="translate(-197.765 0)" fill="#e90000"/>
  </g>
</svg>
