<svg xmlns="http://www.w3.org/2000/svg" width="16.654" height="13.323" viewBox="0 0 16.654 13.323">
  <path id="Icon_material-round-email" data-name="Icon material-round-email" d="M17.989,6H4.665A1.663,1.663,0,0,0,3.008,7.665L3,17.658a1.67,1.67,0,0,0,1.665,1.665H17.989a1.67,1.67,0,0,0,1.665-1.665V7.665A1.67,1.67,0,0,0,17.989,6Zm-.333,3.539L11.768,13.22a.842.842,0,0,1-.883,0L5,9.539a.708.708,0,1,1,.749-1.2l5.579,3.489L16.906,8.34a.708.708,0,1,1,.749,1.2Z" transform="translate(-3 -6)" fill="#e57716"/>
</svg>
