<svg xmlns="http://www.w3.org/2000/svg" width="15.806" height="15.805" viewBox="0 0 15.806 15.805">
  <path id="Icon_ion-ios-call" data-name="Icon ion-ios-call" d="M19.84,16.878a13.276,13.276,0,0,0-2.773-1.856c-.831-.4-1.136-.391-1.724.033-.49.354-.806.683-1.37.56a8.174,8.174,0,0,1-2.753-2.037,8.115,8.115,0,0,1-2.037-2.753c-.119-.568.21-.881.56-1.37.424-.588.436-.893.033-1.724A13.014,13.014,0,0,0,7.919,4.958c-.6-.6-.741-.473-1.074-.354a6.111,6.111,0,0,0-.983.523A2.967,2.967,0,0,0,4.681,6.373c-.235.506-.506,1.448.876,3.909A21.812,21.812,0,0,0,9.392,15.4l0,0,0,0a21.9,21.9,0,0,0,5.115,3.835c2.461,1.383,3.4,1.111,3.909.876a2.916,2.916,0,0,0,1.247-1.181,6.111,6.111,0,0,0,.523-.983c.119-.333.255-.469-.354-1.074Z" transform="translate(-4.49 -4.502)" fill="#e57716"/>
</svg>
