<svg xmlns="http://www.w3.org/2000/svg" width="11.529" height="14" viewBox="0 0 11.529 14">
  <path id="Icon_material-round-download" data-name="Icon material-round-download" d="M17.045,9.441H15.735V5.324a.826.826,0,0,0-.824-.824H11.618a.826.826,0,0,0-.824.824V9.441H9.485A.826.826,0,0,0,8.9,10.849l3.78,3.78a.82.82,0,0,0,1.161,0l3.78-3.78A.824.824,0,0,0,17.045,9.441ZM7.5,17.676a.826.826,0,0,0,.824.824h9.882a.824.824,0,0,0,0-1.647H8.324A.826.826,0,0,0,7.5,17.676Z" transform="translate(-7.5 -4.5)" fill="#e57716"/>
</svg>
