<svg xmlns="http://www.w3.org/2000/svg" width="20.389" height="20.389" viewBox="0 0 20.389 20.389">
  <path id="Icon_akar-instagram-fill" data-name="Icon akar-instagram-fill" d="M7.492,1.561c1.087-.05,1.434-.061,4.2-.061s3.116.012,4.2.061a7.5,7.5,0,0,1,2.476.474,5.219,5.219,0,0,1,2.98,2.981,7.5,7.5,0,0,1,.475,2.474c.05,1.089.061,1.436.061,4.2s-.012,3.116-.061,4.2a7.474,7.474,0,0,1-.475,2.474,5.2,5.2,0,0,1-2.98,2.981,7.5,7.5,0,0,1-2.474.475c-1.088.05-1.435.061-4.2.061s-3.116-.012-4.2-.061a7.474,7.474,0,0,1-2.474-.475,5.21,5.21,0,0,1-2.982-2.98A7.524,7.524,0,0,1,1.561,15.9c-.05-1.089-.061-1.436-.061-4.2s.012-3.116.061-4.2a7.5,7.5,0,0,1,.474-2.476A5,5,0,0,1,3.212,3.211a5,5,0,0,1,1.8-1.176,7.524,7.524,0,0,1,2.474-.474ZM15.814,3.4c-1.075-.049-1.4-.059-4.119-.059s-3.044.01-4.119.059a5.635,5.635,0,0,0-1.893.351A3.367,3.367,0,0,0,3.747,5.682,5.634,5.634,0,0,0,3.4,7.575c-.049,1.075-.059,1.4-.059,4.119s.01,3.044.059,4.119a5.635,5.635,0,0,0,.351,1.893,3.367,3.367,0,0,0,1.934,1.934,5.635,5.635,0,0,0,1.893.351c1.075.049,1.4.059,4.119.059s3.044-.01,4.119-.059a5.635,5.635,0,0,0,1.893-.351,3.367,3.367,0,0,0,1.934-1.934,5.635,5.635,0,0,0,.351-1.893c.049-1.075.059-1.4.059-4.119s-.01-3.044-.059-4.119a5.635,5.635,0,0,0-.351-1.893,3.367,3.367,0,0,0-1.934-1.934A5.635,5.635,0,0,0,15.814,3.4ZM10.392,14.837a3.4,3.4,0,1,0-2.1-3.142,3.4,3.4,0,0,0,2.1,3.142Zm-2.4-6.848a5.24,5.24,0,1,1,0,7.41,5.24,5.24,0,0,1,0-7.41ZM18.1,7.235A1.239,1.239,0,1,0,16.37,7.21,1.239,1.239,0,0,0,18.1,7.235Z" transform="translate(-1.5 -1.5)" fill="#fff"/>
</svg>
