<svg xmlns="http://www.w3.org/2000/svg" width="20.049" height="20.049" viewBox="0 0 20.049 20.049">
  <path id="Icon_fa-brands-linkedin" data-name="Icon fa-brands-linkedin" d="M18.617,2.25H1.428A1.438,1.438,0,0,0,0,3.7V20.853A1.438,1.438,0,0,0,1.428,22.3H18.617a1.442,1.442,0,0,0,1.432-1.445V3.7A1.442,1.442,0,0,0,18.617,2.25ZM6.059,19.435H3.088V9.867H6.064v9.568ZM4.574,8.56A1.723,1.723,0,1,1,6.3,6.837,1.724,1.724,0,0,1,4.574,8.56ZM17.2,19.435H14.227V14.781c0-1.11-.022-2.537-1.544-2.537-1.548,0-1.786,1.208-1.786,2.457v4.735H7.926V9.867h2.851v1.307h.04A3.13,3.13,0,0,1,13.631,9.63c3.007,0,3.567,1.983,3.567,4.56Z" transform="translate(0 -2.25)" fill="#fff"/>
</svg>
