<svg xmlns="http://www.w3.org/2000/svg" width="16.248" height="11.249" viewBox="0 0 16.248 11.249">
  <g id="Icon_ion-ios-mail" data-name="Icon ion-ios-mail" transform="translate(-3.375 -7.875)">
    <path id="Path_27139" data-name="Path 27139" d="M19.49,10.338l-4.2,4.281a.076.076,0,0,0,0,.109l2.941,3.132a.507.507,0,0,1,0,.719.509.509,0,0,1-.719,0l-2.929-3.121a.08.08,0,0,0-.113,0l-.715.726a3.145,3.145,0,0,1-2.242.945,3.208,3.208,0,0,1-2.289-.973l-.687-.7a.08.08,0,0,0-.113,0L5.492,18.579a.509.509,0,0,1-.719,0,.507.507,0,0,1,0-.719l2.941-3.132a.083.083,0,0,0,0-.109L3.508,10.338a.077.077,0,0,0-.133.055v8.565a1.254,1.254,0,0,0,1.25,1.25H18.373a1.254,1.254,0,0,0,1.25-1.25V10.392A.078.078,0,0,0,19.49,10.338Z" transform="translate(0 -1.084)" fill="#e57716"/>
    <path id="Path_27140" data-name="Path 27140" d="M11.877,15.026a2.123,2.123,0,0,0,1.527-.641l6.128-6.238a1.228,1.228,0,0,0-.773-.273H5a1.219,1.219,0,0,0-.773.273l6.128,6.238A2.124,2.124,0,0,0,11.877,15.026Z" transform="translate(-0.378)" fill="#e57716"/>
  </g>
</svg>
