<svg xmlns="http://www.w3.org/2000/svg" width="26.764" height="20.076" viewBox="0 0 26.764 20.076">
  <path id="Icon_ion-logo-youtube" data-name="Icon ion-logo-youtube" d="M26.592,8.933a4.064,4.064,0,0,0-3.869-4.245c-2.9-.135-5.85-.188-8.869-.188h-.941c-3.011,0-5.97.052-8.867.188A4.073,4.073,0,0,0,.183,8.944C.052,10.8,0,12.666,0,14.527s.054,3.724.178,5.589a4.078,4.078,0,0,0,3.864,4.261c3.043.141,6.164.2,9.337.2q4.768.016,9.337-.2a4.078,4.078,0,0,0,3.869-4.261c.125-1.866.183-3.728.178-5.594q.018-2.792-.17-5.589ZM10.822,19.656V9.382L18.4,14.516Z" transform="translate(0 -4.5)" fill="#fff"/>
</svg>
